<mxfile host="app.diagrams.net" agent="Mozilla/5.0 (Windows NT 10.0; Win64; x64) AppleWebKit/537.36 (KHTML, like Gecko) Chrome/136.0.0.0 Safari/537.36 Edg/136.0.0.0" version="27.0.6">
  <diagram name="Страница — 1" id="-EOzjx5CzQE9VD1uyRhu">
    <mxGraphModel dx="2600" dy="993" grid="1" gridSize="10" guides="1" tooltips="1" connect="1" arrows="1" fold="1" page="1" pageScale="1" pageWidth="827" pageHeight="1169" math="0" shadow="0">
      <root>
        <mxCell id="0" />
        <mxCell id="1" parent="0" />
        <mxCell id="xwWvTB3SmUjanC1Ceygi-1" value="&lt;font style=&quot;font-size: 14px;&quot; face=&quot;Times New Roman&quot;&gt;Студент&lt;/font&gt;" style="rounded=0;whiteSpace=wrap;html=1;fillColor=light-dark(#2BD4D4,var(--ge-dark-color, #121212));" parent="1" vertex="1">
          <mxGeometry x="1100" y="10" width="210" height="110" as="geometry" />
        </mxCell>
        <mxCell id="xwWvTB3SmUjanC1Ceygi-12" style="edgeStyle=orthogonalEdgeStyle;rounded=0;orthogonalLoop=1;jettySize=auto;html=1;entryX=0;entryY=0.5;entryDx=0;entryDy=0;" parent="1" source="xwWvTB3SmUjanC1Ceygi-2" target="xwWvTB3SmUjanC1Ceygi-3" edge="1">
          <mxGeometry relative="1" as="geometry" />
        </mxCell>
        <mxCell id="xwWvTB3SmUjanC1Ceygi-2" value="&lt;span style=&quot;font-family: &amp;quot;Times New Roman&amp;quot;; font-size: 14px;&quot;&gt;Направление на пересдачу&lt;/span&gt;" style="rounded=0;whiteSpace=wrap;html=1;fillColor=light-dark(#ADADAD,var(--ge-dark-color, #121212));" parent="1" vertex="1">
          <mxGeometry x="-80" y="360" width="210" height="110" as="geometry" />
        </mxCell>
        <mxCell id="fnJGCV2OGsMbJMiHRyRS-3" style="edgeStyle=orthogonalEdgeStyle;rounded=0;orthogonalLoop=1;jettySize=auto;html=1;" parent="1" source="xwWvTB3SmUjanC1Ceygi-3" target="fnJGCV2OGsMbJMiHRyRS-2" edge="1">
          <mxGeometry relative="1" as="geometry" />
        </mxCell>
        <mxCell id="xwWvTB3SmUjanC1Ceygi-3" value="&lt;span style=&quot;font-family: &amp;quot;Times New Roman&amp;quot;; font-size: 14px;&quot;&gt;Ведомость о системе академической задолженности&lt;/span&gt;" style="rounded=0;whiteSpace=wrap;html=1;fillColor=light-dark(#ADADAD,var(--ge-dark-color, #121212));" parent="1" vertex="1">
          <mxGeometry x="340" y="360" width="210" height="110" as="geometry" />
        </mxCell>
        <mxCell id="xwWvTB3SmUjanC1Ceygi-5" value="&lt;span style=&quot;font-family: &amp;quot;Times New Roman&amp;quot;; font-size: 14px;&quot;&gt;Приказ о назначении комиссии по ликвидации задолженностей&lt;/span&gt;" style="rounded=0;whiteSpace=wrap;html=1;fillColor=light-dark(#DBDBDB,var(--ge-dark-color, #121212));" parent="1" vertex="1">
          <mxGeometry x="200" y="10" width="210" height="110" as="geometry" />
        </mxCell>
        <mxCell id="xwWvTB3SmUjanC1Ceygi-10" style="edgeStyle=orthogonalEdgeStyle;rounded=0;orthogonalLoop=1;jettySize=auto;html=1;entryX=0.5;entryY=1;entryDx=0;entryDy=0;" parent="1" source="xwWvTB3SmUjanC1Ceygi-8" target="xwWvTB3SmUjanC1Ceygi-2" edge="1">
          <mxGeometry relative="1" as="geometry" />
        </mxCell>
        <mxCell id="xwWvTB3SmUjanC1Ceygi-8" value="&lt;span style=&quot;font-family: &amp;quot;Times New Roman&amp;quot;; font-size: 14px;&quot;&gt;Наличие академических задолженностей&lt;/span&gt;" style="rounded=0;whiteSpace=wrap;html=1;fillColor=light-dark(#2BD4D4,var(--ge-dark-color, #121212));" parent="1" vertex="1">
          <mxGeometry x="-80" y="580" width="210" height="110" as="geometry" />
        </mxCell>
        <mxCell id="xwWvTB3SmUjanC1Ceygi-9" value="&lt;span style=&quot;font-family: &amp;quot;Times New Roman&amp;quot;; font-size: 14px;&quot;&gt;Отчетная документация по академическим задолженностям&lt;/span&gt;" style="rounded=0;whiteSpace=wrap;html=1;fillColor=light-dark(#2BD4D4,var(--ge-dark-color, #121212));" parent="1" vertex="1">
          <mxGeometry x="1100" y="580" width="210" height="110" as="geometry" />
        </mxCell>
        <mxCell id="xwWvTB3SmUjanC1Ceygi-11" style="edgeStyle=orthogonalEdgeStyle;rounded=0;orthogonalLoop=1;jettySize=auto;html=1;entryX=-0.019;entryY=0.409;entryDx=0;entryDy=0;entryPerimeter=0;" parent="1" edge="1">
          <mxGeometry relative="1" as="geometry">
            <mxPoint x="54" y="360" as="sourcePoint" />
            <mxPoint x="200.01000000000022" y="54.99000000000001" as="targetPoint" />
            <Array as="points">
              <mxPoint x="54" y="55" />
            </Array>
          </mxGeometry>
        </mxCell>
        <mxCell id="xwWvTB3SmUjanC1Ceygi-16" value="&lt;div style=&quot;text-align: center;&quot;&gt;&lt;span style=&quot;background-color: transparent; font-size: 14px;&quot;&gt;&lt;font face=&quot;Times New Roman&quot;&gt;Идентификация студентов&lt;/font&gt;&lt;/span&gt;&lt;/div&gt;" style="text;whiteSpace=wrap;html=1;" parent="1" vertex="1">
          <mxGeometry x="60" y="158" width="160" height="40" as="geometry" />
        </mxCell>
        <mxCell id="xwWvTB3SmUjanC1Ceygi-17" value="&lt;font face=&quot;Times New Roman&quot;&gt;&lt;span style=&quot;font-size: 14px;&quot;&gt;Идентификация академических задолженностей&lt;/span&gt;&lt;/font&gt;" style="text;whiteSpace=wrap;html=1;align=center;" parent="1" vertex="1">
          <mxGeometry x="-110" y="495" width="120" height="60" as="geometry" />
        </mxCell>
        <mxCell id="xwWvTB3SmUjanC1Ceygi-21" value="&lt;span style=&quot;font-family: &amp;quot;Times New Roman&amp;quot;; font-size: 14px;&quot;&gt;Заявление на продление сроков ликвидации задолженности&lt;/span&gt;" style="text;html=1;align=center;verticalAlign=middle;whiteSpace=wrap;rounded=0;" parent="1" vertex="1">
          <mxGeometry x="440" y="510" width="170" height="30" as="geometry" />
        </mxCell>
        <mxCell id="xwWvTB3SmUjanC1Ceygi-23" value="&lt;font style=&quot;font-size: 14px;&quot; face=&quot;Times New Roman&quot;&gt;Рекомендации по студентам&lt;/font&gt;" style="text;html=1;align=center;verticalAlign=middle;whiteSpace=wrap;rounded=0;" parent="1" vertex="1">
          <mxGeometry x="1020" y="420" width="180" height="30" as="geometry" />
        </mxCell>
        <mxCell id="SZ57jk1cy83poXKxdZqZ-2" style="edgeStyle=orthogonalEdgeStyle;rounded=0;orthogonalLoop=1;jettySize=auto;html=1;entryX=0.5;entryY=0;entryDx=0;entryDy=0;" parent="1" source="xwWvTB3SmUjanC1Ceygi-3" target="xwWvTB3SmUjanC1Ceygi-9" edge="1">
          <mxGeometry relative="1" as="geometry">
            <Array as="points">
              <mxPoint x="1205" y="415" />
            </Array>
          </mxGeometry>
        </mxCell>
        <mxCell id="fnJGCV2OGsMbJMiHRyRS-1" value="&lt;div style=&quot;text-align: center;&quot;&gt;&lt;span style=&quot;font-family: &amp;quot;Times New Roman&amp;quot;; font-size: 14px;&quot;&gt;Ликвидация академических задолженностей&lt;/span&gt;&lt;/div&gt;" style="text;whiteSpace=wrap;html=1;" parent="1" vertex="1">
          <mxGeometry x="140" y="360" width="190" height="40" as="geometry" />
        </mxCell>
        <mxCell id="T_tig3cNK72uaysmrqVL-5" style="edgeStyle=orthogonalEdgeStyle;rounded=0;orthogonalLoop=1;jettySize=auto;html=1;entryX=0;entryY=0.5;entryDx=0;entryDy=0;" edge="1" parent="1" source="fnJGCV2OGsMbJMiHRyRS-2" target="T_tig3cNK72uaysmrqVL-4">
          <mxGeometry relative="1" as="geometry" />
        </mxCell>
        <mxCell id="fnJGCV2OGsMbJMiHRyRS-2" value="&lt;font face=&quot;Times New Roman&quot;&gt;&lt;span style=&quot;font-size: 14px;&quot;&gt;Создается индивидуальный план ликвидации задолженностей (ИОМ)&lt;/span&gt;&lt;/font&gt;" style="rounded=0;whiteSpace=wrap;html=1;fillColor=light-dark(#ADADAD,var(--ge-dark-color, #121212));" parent="1" vertex="1">
          <mxGeometry x="340" y="580" width="210" height="110" as="geometry" />
        </mxCell>
        <mxCell id="T_tig3cNK72uaysmrqVL-2" value="&lt;div style=&quot;text-align: center;&quot;&gt;&lt;span style=&quot;background-color: transparent; font-size: 14px;&quot;&gt;&lt;font face=&quot;Times New Roman&quot;&gt;Список студентов&lt;/font&gt;&lt;/span&gt;&lt;/div&gt;" style="text;whiteSpace=wrap;html=1;" vertex="1" parent="1">
          <mxGeometry x="-100" y="158" width="120" height="32" as="geometry" />
        </mxCell>
        <mxCell id="T_tig3cNK72uaysmrqVL-3" style="edgeStyle=orthogonalEdgeStyle;rounded=0;orthogonalLoop=1;jettySize=auto;html=1;" edge="1" parent="1" source="T_tig3cNK72uaysmrqVL-2">
          <mxGeometry relative="1" as="geometry">
            <mxPoint x="-40" y="360" as="targetPoint" />
          </mxGeometry>
        </mxCell>
        <mxCell id="T_tig3cNK72uaysmrqVL-6" style="edgeStyle=orthogonalEdgeStyle;rounded=0;orthogonalLoop=1;jettySize=auto;html=1;entryX=0;entryY=0.5;entryDx=0;entryDy=0;" edge="1" parent="1" source="T_tig3cNK72uaysmrqVL-4" target="xwWvTB3SmUjanC1Ceygi-9">
          <mxGeometry relative="1" as="geometry" />
        </mxCell>
        <mxCell id="T_tig3cNK72uaysmrqVL-4" value="&lt;font face=&quot;Times New Roman&quot;&gt;&lt;span style=&quot;font-size: 14px;&quot;&gt;Ведомость о системе академической задолженности для студентов с ИОМ&lt;/span&gt;&lt;/font&gt;" style="rounded=0;whiteSpace=wrap;html=1;fillColor=light-dark(#ADADAD,var(--ge-dark-color, #121212));" vertex="1" parent="1">
          <mxGeometry x="730" y="580" width="210" height="110" as="geometry" />
        </mxCell>
        <mxCell id="T_tig3cNK72uaysmrqVL-8" value="&lt;font style=&quot;font-size: 14px;&quot; face=&quot;Times New Roman&quot;&gt;Рекомендации по студентам&lt;/font&gt;" style="text;html=1;align=center;verticalAlign=middle;whiteSpace=wrap;rounded=0;" vertex="1" parent="1">
          <mxGeometry x="950" y="600" width="150" height="30" as="geometry" />
        </mxCell>
        <mxCell id="T_tig3cNK72uaysmrqVL-9" value="&lt;div style=&quot;text-align: center;&quot;&gt;&lt;span style=&quot;font-family: &amp;quot;Times New Roman&amp;quot;; font-size: 14px;&quot;&gt;Ликвидация академических задолженностей&lt;/span&gt;&lt;/div&gt;" style="text;whiteSpace=wrap;html=1;" vertex="1" parent="1">
          <mxGeometry x="545" y="595" width="190" height="40" as="geometry" />
        </mxCell>
      </root>
    </mxGraphModel>
  </diagram>
</mxfile>
